<svg width="102" height="105" viewBox="0 0 102 105" fill="none" xmlns="http://www.w3.org/2000/svg">
<path d="M62.7071 93.4448C59.1908 102.309 52.393 105.822 44.4686 103.212C37.8766 101.04 33.9509 93.1914 35.94 86.1597C37.656 80.0932 42.9878 76.4298 50.8594 76.0501C59.0962 75.6528 66.2207 73.2258 70.5348 65.5508C80.2659 48.2388 70.0645 29.1317 50.4183 27.8406C41.6297 27.263 36.2686 22.8164 35.4462 15.4225C34.7193 8.88772 38.6293 2.82573 44.9101 0.749937C53.5184 -2.0951 62.0831 3.44424 63.0191 12.4712C63.2592 14.7867 63.3467 17.124 63.7027 19.4205C65.4469 30.6714 72.4785 36.9502 83.8242 37.8219C87.0777 38.0719 90.4723 38.5359 93.4604 39.7458C98.9537 41.9701 101.764 47.8137 101.023 54.0411C100.355 59.6662 96.2568 64.2798 90.6237 65.3705C87.0602 66.0606 83.3654 66.1121 79.8298 66.9002C70.1723 69.053 64.9343 74.8616 63.6046 84.6041C63.2224 87.4039 63.0672 90.2346 62.7071 93.4448Z" fill="#FEFEFE"/>
<path d="M7.08258 62.1092C0.765295 58.4924 -1.38071 53.3324 0.864951 47.9035C3.01945 42.6949 8.59907 39.8635 13.8776 41.3001C19.2344 42.758 22.4231 47.8305 21.9734 53.4983C21.5697 58.5873 14.3308 65.3902 7.08258 62.1092Z" fill="#FEFEFE"/>
</svg>
