<svg version="1.1" id="Layer_1" xmlns="http://www.w3.org/2000/svg" xmlns:xlink="http://www.w3.org/1999/xlink" x="0px" y="0px"
	 width="100%" viewBox="0 0 760 200" enable-background="new 0 0 760 200" xml:space="preserve">
<path fill="#FEFEFE" opacity="0.000000" stroke="none" 
	d="
M722.000000,201.000000 
	C481.395874,201.000000 241.291718,201.000000 1.093792,201.000000 
	C1.093792,134.413330 1.093792,67.826492 1.093792,1.119828 
	C254.333298,1.119828 507.666626,1.119828 760.994873,1.119828 
	C760.994873,67.708229 760.994873,134.354111 760.992310,201.000000 
	C748.159851,201.000000 735.329895,201.000000 722.000000,201.000000 
M147.887009,148.043137 
	C148.146271,145.226562 148.301514,142.395782 148.683655,139.595993 
	C150.013382,129.853516 155.251404,124.044907 164.908905,121.892136 
	C168.444458,121.104027 172.139236,121.052498 175.702789,120.362457 
	C181.335846,119.271690 185.433578,114.658104 186.102341,109.033035 
	C186.842697,102.805603 184.032730,96.962013 178.539444,94.737724 
	C175.551331,93.527802 172.156784,93.063828 168.903259,92.813858 
	C157.557602,91.942146 150.526001,85.663338 148.781799,74.412468 
	C148.425766,72.115936 148.338272,69.778648 148.098175,67.463127 
	C147.162186,58.436161 138.597458,52.896824 129.989182,55.741859 
	C123.708412,57.817650 119.798355,63.879642 120.525238,70.414383 
	C121.347687,77.808342 126.708794,82.254921 135.497345,82.832504 
	C155.143600,84.123657 165.345001,103.230759 155.613876,120.542732 
	C151.299744,128.217682 144.175308,130.644714 135.938431,131.042038 
	C128.066910,131.421738 122.735054,135.085144 121.019035,141.151627 
	C119.029991,148.183304 122.955704,156.032288 129.547638,158.203537 
	C137.472107,160.813660 144.269836,157.300674 147.887009,148.043137 
M525.106750,85.245674 
	C514.446106,81.349136 504.630310,83.214546 498.057617,90.386101 
	C489.387726,99.845970 490.565887,114.697655 500.618988,122.674492 
	C511.069611,130.966736 527.234253,128.486298 534.433167,117.485741 
	C541.706116,106.372047 537.941895,92.567421 525.106750,85.245674 
M364.865845,113.519974 
	C366.003662,112.614922 367.104126,110.989433 368.285645,110.928230 
	C373.702423,110.647682 379.141876,110.804817 384.578796,110.804817 
	C384.578796,107.740456 384.578796,105.494995 384.578796,102.756180 
	C377.880096,102.756180 371.463348,102.756180 365.173920,102.756180 
	C365.173920,98.818985 365.173920,95.394714 365.173920,91.428070 
	C373.040985,91.428070 380.610474,91.428070 388.151306,91.428070 
	C388.151306,88.616570 388.151306,86.374405 388.151306,84.264023 
	C377.585175,84.264023 367.356934,84.264023 356.971252,84.264023 
	C356.971252,91.666985 356.971283,98.656151 356.971283,105.645317 
	C356.971283,112.590881 356.971252,119.536446 356.971252,126.635948 
	C367.737579,126.635948 377.941254,126.635948 388.150635,126.635948 
	C388.150635,124.036392 388.150635,121.781845 388.150635,118.977554 
	C380.258331,118.977554 372.687622,118.977554 364.864838,118.977554 
	C364.864838,117.111893 364.864838,115.799431 364.865845,113.519974 
M301.391205,86.335327 
	C301.572327,85.597198 302.108032,84.362381 301.878967,84.198837 
	C299.891144,82.779694 293.091644,84.201012 291.569000,86.278801 
	C288.673584,90.229828 285.828857,94.218002 282.934631,98.230171 
	C282.184326,97.569580 281.885559,97.387878 281.695831,97.126900 
	C279.741119,94.438103 277.795746,91.742393 275.863708,89.037247 
	C271.557648,83.008125 270.812622,82.742035 262.927429,84.700935 
	C267.879242,91.686989 272.756683,98.568085 277.733398,105.589272 
	C272.836914,112.514183 267.990234,119.368706 263.024628,126.391380 
	C269.395599,128.120682 273.776123,126.805893 276.675842,121.137619 
	C278.148865,118.258186 280.442780,115.798706 282.754425,112.613640 
	C285.109833,115.902611 287.495667,118.513725 289.043823,121.551727 
	C291.915680,127.187294 296.353973,127.824699 302.494965,126.437614 
	C298.077850,120.199623 293.998871,114.219536 289.662689,108.432205 
	C288.100708,106.347534 288.044556,104.913666 289.630341,102.818878 
	C293.541077,97.652863 297.186584,92.286057 301.391205,86.335327 
M343.257690,123.816177 
	C344.924438,122.325989 346.591217,120.835793 348.544495,119.089424 
	C346.250641,117.230339 344.475067,115.791283 342.778503,114.416283 
	C332.187592,121.429115 324.941254,121.408745 318.974487,114.537086 
	C314.190399,109.027405 314.276764,101.308784 319.182770,95.920219 
	C325.045044,89.481331 332.607758,89.411804 342.318665,95.949669 
	C344.015900,94.373535 345.784210,92.731422 347.542450,91.098663 
	C339.434448,81.825958 325.815521,80.497833 316.254150,87.743134 
	C306.961670,94.784660 304.727509,107.940475 311.173615,117.659782 
	C317.819366,127.680077 331.192780,130.445709 343.257690,123.816177 
M603.853882,110.491882 
	C607.585938,101.830666 611.317932,93.169456 615.087952,84.419930 
	C606.942383,83.079102 606.939026,83.077644 603.991455,89.894257 
	C602.145264,94.163971 600.329834,98.447060 598.466064,102.709076 
	C596.515503,107.169586 594.523682,111.612053 591.930969,117.457672 
	C587.491821,107.253525 583.673523,98.501495 579.876587,89.740219 
	C576.939758,82.963676 576.736023,82.852448 568.869934,84.591087 
	C574.699768,98.044655 580.457825,111.455025 586.393005,124.786522 
	C586.845032,125.801834 588.479065,126.694359 589.688904,126.897400 
	C594.335449,127.677147 597.937988,126.810944 599.259521,121.249947 
	C600.090332,117.753876 602.079346,114.533035 603.853882,110.491882 
M475.991211,99.555603 
	C475.991211,97.109695 475.991211,94.663795 475.991211,91.652443 
	C480.747925,91.652443 484.988098,91.652443 489.497772,91.652443 
	C489.497772,88.850075 489.497772,86.618324 489.497772,84.110825 
	C477.935730,84.110825 466.520599,84.110825 454.877869,84.110825 
	C454.877869,86.570000 454.877869,88.962593 454.877869,91.928787 
	C459.428894,91.928787 463.650757,91.928787 468.326660,91.928787 
	C468.326660,103.905731 468.326660,115.313202 468.326660,126.691170 
	C471.063721,126.691170 473.318420,126.691170 475.991211,126.691170 
	C475.991211,117.783585 475.991211,109.161926 475.991211,99.555603 
M424.986542,123.480499 
	C424.868164,122.072151 424.749786,120.663811 424.605774,118.950516 
	C418.301575,118.950516 412.511780,118.950516 406.315002,118.950516 
	C406.315002,107.167450 406.315002,95.728531 406.315002,84.080460 
	C403.616394,84.080460 401.329773,84.080460 398.990082,84.080460 
	C398.990082,98.406677 398.990082,112.592209 398.990082,126.963829 
	C406.885681,126.963829 414.377747,127.064674 421.860779,126.849869 
	C422.924194,126.819351 423.943634,125.255791 424.986542,123.480499 
M624.739685,105.361694 
	C624.905518,95.528168 631.363647,91.650375 639.721069,89.885361 
	C639.721069,87.441887 639.721069,85.332764 639.721069,82.802170 
	C630.968628,82.666687 624.353149,86.185715 620.001892,93.359100 
	C615.157837,101.345085 615.430542,109.663071 620.668274,117.353935 
	C625.111694,123.878471 631.507568,127.150764 639.640625,126.897377 
	C639.640625,124.090599 639.640625,121.829559 639.640625,119.484596 
	C631.570435,118.309608 626.078552,114.550980 624.739685,105.361694 
M92.527596,117.236687 
	C99.409874,120.382141 106.648743,113.579247 107.052490,108.490273 
	C107.502167,102.822472 104.313438,97.749908 98.956627,96.292000 
	C93.678131,94.855408 88.098518,97.686852 85.944016,102.895409 
	C83.698357,108.324348 85.844360,113.484337 92.527596,117.236687 
M650.844421,126.931984 
	C652.903748,126.931984 654.963074,126.931984 657.316711,126.931984 
	C657.316711,120.269669 657.316711,114.330803 657.316711,107.831352 
	C663.336853,107.831352 669.056824,107.831352 674.877197,107.831352 
	C674.877197,105.014412 674.877197,102.763939 674.877197,100.248405 
	C666.426758,100.248405 658.222900,100.248405 650.016418,100.248405 
	C650.016418,109.144196 650.016418,117.881767 650.844421,126.931984 
M250.160034,83.835434 
	C241.791534,83.835434 233.423019,83.835434 225.251862,83.835434 
	C225.251862,86.825859 225.251862,89.087059 225.251862,91.300941 
	C235.745346,91.300941 245.918884,91.300941 256.232544,91.300941 
	C256.232544,88.682785 256.232544,86.451172 256.232544,83.835403 
	C254.333313,83.835403 252.702133,83.835403 250.160034,83.835434 
M649.583435,85.133446 
	C649.583435,87.227165 649.583435,89.320877 649.583435,91.374962 
	C659.693420,91.374962 669.091309,91.374962 678.667419,91.374962 
	C678.667419,88.782730 678.667419,86.500343 678.667419,84.339897 
	C668.937439,84.339897 659.369446,84.339897 649.583435,85.133446 
M232.709198,101.828934 
	C230.248138,101.828934 227.787079,101.828934 225.340454,101.828934 
	C225.340454,104.645241 225.340454,106.999542 225.340454,109.369247 
	C234.659225,109.369247 243.566269,109.369247 252.678802,109.369247 
	C252.678802,106.779839 252.678802,104.502357 252.678802,101.829018 
	C246.243652,101.829018 239.949860,101.829018 232.709198,101.828934 
M225.945023,119.221176 
	C225.551498,121.647087 225.157974,124.072990 224.719803,126.774101 
	C235.756058,126.774101 245.843735,126.774101 256.125732,126.774101 
	C256.125732,124.181015 256.125732,121.791824 256.125732,119.078232 
	C246.138382,119.078232 236.504623,119.078232 225.945023,119.221176 
z"/>
<path fill="#0E222C" opacity="1.000000" stroke="none" 
	d="
M147.786133,148.436676 
	C144.269836,157.300674 137.472107,160.813660 129.547638,158.203537 
	C122.955704,156.032288 119.029991,148.183304 121.019035,141.151627 
	C122.735054,135.085144 128.066910,131.421738 135.938431,131.042038 
	C144.175308,130.644714 151.299744,128.217682 155.613876,120.542732 
	C165.345001,103.230759 155.143600,84.123657 135.497345,82.832504 
	C126.708794,82.254921 121.347687,77.808342 120.525238,70.414383 
	C119.798355,63.879642 123.708412,57.817650 129.989182,55.741859 
	C138.597458,52.896824 147.162186,58.436161 148.098175,67.463127 
	C148.338272,69.778648 148.425766,72.115936 148.781799,74.412468 
	C150.526001,85.663338 157.557602,91.942146 168.903259,92.813858 
	C172.156784,93.063828 175.551331,93.527802 178.539444,94.737724 
	C184.032730,96.962013 186.842697,102.805603 186.102341,109.033035 
	C185.433578,114.658104 181.335846,119.271690 175.702789,120.362457 
	C172.139236,121.052498 168.444458,121.104027 164.908905,121.892136 
	C155.251404,124.044907 150.013382,129.853516 148.683655,139.595993 
	C148.301514,142.395782 148.146271,145.226562 147.786133,148.436676 
z"/>
<path fill="#122630" opacity="1.000000" stroke="none" 
	d="
M525.428711,85.444939 
	C537.941895,92.567421 541.706116,106.372047 534.433167,117.485741 
	C527.234253,128.486298 511.069611,130.966736 500.618988,122.674492 
	C490.565887,114.697655 489.387726,99.845970 498.057617,90.386101 
	C504.630310,83.214546 514.446106,81.349136 525.428711,85.444939 
M515.428833,90.972878 
	C505.094879,91.686630 498.253204,99.686798 500.510651,108.417130 
	C502.376404,115.632515 509.463196,120.617912 516.633057,119.758812 
	C523.985840,118.877800 529.801758,112.902458 530.099976,105.922844 
	C530.422424,98.375511 525.161377,92.704102 515.428833,90.972878 
z"/>
<path fill="#132731" opacity="1.000000" stroke="none" 
	d="
M364.865356,114.003471 
	C364.864838,115.799431 364.864838,117.111893 364.864838,118.977554 
	C372.687622,118.977554 380.258331,118.977554 388.150635,118.977554 
	C388.150635,121.781845 388.150635,124.036392 388.150635,126.635948 
	C377.941254,126.635948 367.737579,126.635948 356.971252,126.635948 
	C356.971252,119.536446 356.971283,112.590881 356.971283,105.645317 
	C356.971283,98.656151 356.971252,91.666985 356.971252,84.264023 
	C367.356934,84.264023 377.585175,84.264023 388.151306,84.264023 
	C388.151306,86.374405 388.151306,88.616570 388.151306,91.428070 
	C380.610474,91.428070 373.040985,91.428070 365.173920,91.428070 
	C365.173920,95.394714 365.173920,98.818985 365.173920,102.756180 
	C371.463348,102.756180 377.880096,102.756180 384.578796,102.756180 
	C384.578796,105.494995 384.578796,107.740456 384.578796,110.804817 
	C379.141876,110.804817 373.702423,110.647682 368.285645,110.928230 
	C367.104126,110.989433 366.003662,112.614922 364.865356,114.003471 
z"/>
<path fill="#12262F" opacity="1.000000" stroke="none" 
	d="
M301.164978,86.667648 
	C297.186584,92.286057 293.541077,97.652863 289.630341,102.818878 
	C288.044556,104.913666 288.100708,106.347534 289.662689,108.432205 
	C293.998871,114.219536 298.077850,120.199623 302.494965,126.437614 
	C296.353973,127.824699 291.915680,127.187294 289.043823,121.551727 
	C287.495667,118.513725 285.109833,115.902611 282.754425,112.613640 
	C280.442780,115.798706 278.148865,118.258186 276.675842,121.137619 
	C273.776123,126.805893 269.395599,128.120682 263.024628,126.391380 
	C267.990234,119.368706 272.836914,112.514183 277.733398,105.589272 
	C272.756683,98.568085 267.879242,91.686989 262.927429,84.700935 
	C270.812622,82.742035 271.557648,83.008125 275.863708,89.037247 
	C277.795746,91.742393 279.741119,94.438103 281.695831,97.126900 
	C281.885559,97.387878 282.184326,97.569580 282.934631,98.230171 
	C285.828857,94.218002 288.673584,90.229828 291.569000,86.278801 
	C293.091644,84.201012 299.891144,82.779694 301.878967,84.198837 
	C302.108032,84.362381 301.572327,85.597198 301.164978,86.667648 
z"/>
<path fill="#132630" opacity="1.000000" stroke="none" 
	d="
M342.932922,123.988327 
	C331.192780,130.445709 317.819366,127.680077 311.173615,117.659782 
	C304.727509,107.940475 306.961670,94.784660 316.254150,87.743134 
	C325.815521,80.497833 339.434448,81.825958 347.542450,91.098663 
	C345.784210,92.731422 344.015900,94.373535 342.318665,95.949669 
	C332.607758,89.411804 325.045044,89.481331 319.182770,95.920219 
	C314.276764,101.308784 314.190399,109.027405 318.974487,114.537086 
	C324.941254,121.408745 332.187592,121.429115 342.778503,114.416283 
	C344.475067,115.791283 346.250641,117.230339 348.544495,119.089424 
	C346.591217,120.835793 344.924438,122.325989 342.932922,123.988327 
z"/>
<path fill="#132731" opacity="1.000000" stroke="none" 
	d="
M603.701294,110.840302 
	C602.079346,114.533035 600.090332,117.753876 599.259521,121.249947 
	C597.937988,126.810944 594.335449,127.677147 589.688904,126.897400 
	C588.479065,126.694359 586.845032,125.801834 586.393005,124.786522 
	C580.457825,111.455025 574.699768,98.044655 568.869934,84.591087 
	C576.736023,82.852448 576.939758,82.963676 579.876587,89.740219 
	C583.673523,98.501495 587.491821,107.253525 591.930969,117.457672 
	C594.523682,111.612053 596.515503,107.169586 598.466064,102.709076 
	C600.329834,98.447060 602.145264,94.163971 603.991455,89.894257 
	C606.939026,83.077644 606.942383,83.079102 615.087952,84.419930 
	C611.317932,93.169456 607.585938,101.830666 603.701294,110.840302 
z"/>
<path fill="#172A34" opacity="1.000000" stroke="none" 
	d="
M475.991211,100.047935 
	C475.991211,109.161926 475.991211,117.783585 475.991211,126.691170 
	C473.318420,126.691170 471.063721,126.691170 468.326660,126.691170 
	C468.326660,115.313202 468.326660,103.905731 468.326660,91.928787 
	C463.650757,91.928787 459.428894,91.928787 454.877869,91.928787 
	C454.877869,88.962593 454.877869,86.570000 454.877869,84.110825 
	C466.520599,84.110825 477.935730,84.110825 489.497772,84.110825 
	C489.497772,86.618324 489.497772,88.850075 489.497772,91.652443 
	C484.988098,91.652443 480.747925,91.652443 475.991211,91.652443 
	C475.991211,94.663795 475.991211,97.109695 475.991211,100.047935 
z"/>
<path fill="#0E222C" opacity="1.000000" stroke="none" 
	d="
M424.984985,123.941132 
	C423.943634,125.255791 422.924194,126.819351 421.860779,126.849869 
	C414.377747,127.064674 406.885681,126.963829 398.990082,126.963829 
	C398.990082,112.592209 398.990082,98.406677 398.990082,84.080460 
	C401.329773,84.080460 403.616394,84.080460 406.315002,84.080460 
	C406.315002,95.728531 406.315002,107.167450 406.315002,118.950516 
	C412.511780,118.950516 418.301575,118.950516 424.605774,118.950516 
	C424.749786,120.663811 424.868164,122.072151 424.984985,123.941132 
z"/>
<path fill="#142832" opacity="1.000000" stroke="none" 
	d="
M624.775879,105.779510 
	C626.078552,114.550980 631.570435,118.309608 639.640625,119.484596 
	C639.640625,121.829559 639.640625,124.090599 639.640625,126.897377 
	C631.507568,127.150764 625.111694,123.878471 620.668274,117.353935 
	C615.430542,109.663071 615.157837,101.345085 620.001892,93.359100 
	C624.353149,86.185715 630.968628,82.666687 639.721069,82.802170 
	C639.721069,85.332764 639.721069,87.441887 639.721069,89.885361 
	C631.363647,91.650375 624.905518,95.528168 624.775879,105.779510 
z"/>
<path fill="#10242D" opacity="1.000000" stroke="none" 
	d="
M92.161644,117.101105 
	C85.844360,113.484337 83.698357,108.324348 85.944016,102.895409 
	C88.098518,97.686852 93.678131,94.855408 98.956627,96.292000 
	C104.313438,97.749908 107.502167,102.822472 107.052490,108.490273 
	C106.648743,113.579247 99.409874,120.382141 92.161644,117.101105 
z"/>
<path fill="#0E232D" opacity="1.000000" stroke="none" 
	d="
M650.430420,126.775665 
	C650.016418,117.881767 650.016418,109.144196 650.016418,100.248405 
	C658.222900,100.248405 666.426758,100.248405 674.877197,100.248405 
	C674.877197,102.763939 674.877197,105.014412 674.877197,107.831352 
	C669.056824,107.831352 663.336853,107.831352 657.316711,107.831352 
	C657.316711,114.330803 657.316711,120.269669 657.316711,126.931984 
	C654.963074,126.931984 652.903748,126.931984 650.430420,126.775665 
z"/>
<path fill="#172B34" opacity="1.000000" stroke="none" 
	d="
M250.615494,83.835419 
	C252.702133,83.835403 254.333313,83.835403 256.232544,83.835403 
	C256.232544,86.451172 256.232544,88.682785 256.232544,91.300941 
	C245.918884,91.300941 235.745346,91.300941 225.251862,91.300941 
	C225.251862,89.087059 225.251862,86.825859 225.251862,83.835434 
	C233.423019,83.835434 241.791534,83.835434 250.615494,83.835419 
z"/>
<path fill="#172B34" opacity="1.000000" stroke="none" 
	d="
M649.692383,84.736671 
	C659.369446,84.339897 668.937439,84.339897 678.667419,84.339897 
	C678.667419,86.500343 678.667419,88.782730 678.667419,91.374962 
	C669.091309,91.374962 659.693420,91.374962 649.583435,91.374962 
	C649.583435,89.320877 649.583435,87.227165 649.692383,84.736671 
z"/>
<path fill="#182C35" opacity="1.000000" stroke="none" 
	d="
M233.182632,101.828979 
	C239.949860,101.829018 246.243652,101.829018 252.678802,101.829018 
	C252.678802,104.502357 252.678802,106.779839 252.678802,109.369247 
	C243.566269,109.369247 234.659225,109.369247 225.340454,109.369247 
	C225.340454,106.999542 225.340454,104.645241 225.340454,101.828934 
	C227.787079,101.828934 230.248138,101.828934 233.182632,101.828979 
z"/>
<path fill="#122630" opacity="1.000000" stroke="none" 
	d="
M226.407928,119.149704 
	C236.504623,119.078232 246.138382,119.078232 256.125732,119.078232 
	C256.125732,121.791824 256.125732,124.181015 256.125732,126.774101 
	C245.843735,126.774101 235.756058,126.774101 224.719803,126.774101 
	C225.157974,124.072990 225.551498,121.647087 226.407928,119.149704 
z"/>
<path fill="#F8F9F9" opacity="0.000000" stroke="none" 
	d="
M515.844360,90.988052 
	C525.161377,92.704102 530.422424,98.375511 530.099976,105.922844 
	C529.801758,112.902458 523.985840,118.877800 516.633057,119.758812 
	C509.463196,120.617912 502.376404,115.632515 500.510651,108.417130 
	C498.253204,99.686798 505.094879,91.686630 515.844360,90.988052 
z"/>
</svg>